<?xml version="1.0" encoding="iso-8859-1"?>
<!-- Generator: Adobe Illustrator 19.0.0, SVG Export Plug-In . SVG Version: 6.00 Build 0)  -->
<svg version="1.1" id="Capa_1" xmlns="http://www.w3.org/2000/svg" xmlns:xlink="http://www.w3.org/1999/xlink" x="0px" y="0px"
	 viewBox="0 0 512.005 512.005" style="enable-background:new 0 0 512.005 512.005;" xml:space="preserve">
<g>
	<g>
		<g>
			<path d="M296.286,224.005h-80.568c-1.396,10.087-2.383,20.654-2.383,32c0,11.346,0.987,21.913,2.383,32h80.568
				c1.396-10.087,2.383-20.654,2.383-32C298.669,244.659,297.682,234.092,296.286,224.005z"/>
			<path d="M192.003,256.005c0-11.152,0.715-21.818,1.934-32h-39.154c-3.228,10.167-5.447,20.779-5.447,32
				c0,11.221,2.219,21.833,5.447,32h39.154C192.717,277.823,192.003,267.158,192.003,256.005z"/>
			<path d="M298.031,158.034c7.073,12.023,12.711,27.186,16.505,44.638h33.294C336.354,182.996,319.113,167.116,298.031,158.034z"/>
			<path d="M256.003,149.339c-13.596,0-28.111,21.057-36.217,53.333h72.435C284.113,170.396,269.599,149.339,256.003,149.339z"/>
			<path d="M256.003,362.672c13.596,0,28.111-21.057,36.217-53.333h-72.435C227.892,341.615,242.406,362.672,256.003,362.672z"/>
			<path d="M298.031,353.977c21.082-9.082,38.323-24.962,49.799-44.638h-33.294C310.742,326.79,305.104,341.953,298.031,353.977z"/>
			<path d="M164.174,309.339c11.477,19.676,28.717,35.556,49.799,44.638c-7.073-12.023-12.711-27.186-16.505-44.638H164.174z"/>
			<path d="M320.003,256.005c0,11.152-0.715,21.818-1.934,32h39.154c3.228-10.167,5.447-20.779,5.447-32
				c0-11.221-2.219-21.833-5.447-32h-39.154C319.288,234.187,320.003,244.853,320.003,256.005z"/>
			<path d="M440.878,64.609l-181.333-64c-2.292-0.813-4.792-0.813-7.083,0l-181.333,64c-4.271,1.51-7.125,5.542-7.125,10.063v128
				c0,165.646,24.563,226.188,187.188,308.188c1.521,0.76,3.167,1.146,4.812,1.146c1.646,0,3.292-0.385,4.813-1.146
				c162.625-82,187.188-142.542,187.188-308.188v-128C448.003,70.151,445.148,66.12,440.878,64.609z M256.003,384.005
				c-70.583,0-128-57.417-128-128s57.417-128,128-128s128,57.417,128,128S326.586,384.005,256.003,384.005z"/>
			<path d="M213.974,158.034c-21.082,9.082-38.323,24.962-49.799,44.638h33.294C201.263,185.22,206.901,170.057,213.974,158.034z"/>
		</g>
	</g>
</g>
<g>
</g>
<g>
</g>
<g>
</g>
<g>
</g>
<g>
</g>
<g>
</g>
<g>
</g>
<g>
</g>
<g>
</g>
<g>
</g>
<g>
</g>
<g>
</g>
<g>
</g>
<g>
</g>
<g>
</g>
</svg>
